PathFileType	4	(X/Y/Z)	C:/Users/opensim2020/Desktop/walking_exp_matlab/subject01_walking11_straight_03.trc																																																																																																																																		
DataRate	CameraRate	NumFrames	NumMarkers	Units	OrigDataRate	OrigDataStartFrame	OrigNumFrames																																																																																																																														
100	100	7	44	mm	100	3039	338																																																																																																																														
Frame#	Time	LFHD			RFHD			LBHD			RBHD			C7			T10			CLAV			STRN			RBAK			LSHO			LUPA			LELB			LFRM			LWRA			LWRB			LFIN			RSHO			RUPA			RELB			RFRM			RWRA			RWRB			RFIN			LASI			RASI			LPSI			RPSI			LTHI			LKNE			LTIB			LANK			LHEE			LTOE			RTHI			RKNE			RTIB			RANK			RHEE			RTOE			*39			*40			*41			*42			*43		
		X1	Y1	Z1	X2	Y2	Z2	X3	Y3	Z3	X4	Y4	Z4	X5	Y5	Z5	X6	Y6	Z6	X7	Y7	Z7	X8	Y8	Z8	X9	Y9	Z9	X10	Y10	Z10	X11	Y11	Z11	X12	Y12	Z12	X13	Y13	Z13	X14	Y14	Z14	X15	Y15	Z15	X16	Y16	Z16	X17	Y17	Z17	X18	Y18	Z18	X19	Y19	Z19	X20	Y20	Z20	X21	Y21	Z21	X22	Y22	Z22	X23	Y23	Z23	X24	Y24	Z24	X25	Y25	Z25	X26	Y26	Z26	X27	Y27	Z27	X28	Y28	Z28	X29	Y29	Z29	X30	Y30	Z30	X31	Y31	Z31	X32	Y32	Z32	X33	Y33	Z33	X34	Y34	Z34	X35	Y35	Z35	X36	Y36	Z36	X37	Y37	Z37	X38	Y38	Z38	X39	Y39	Z39	X40	Y40	Z40	X41	Y41	Z41	X42	Y42	Z42	X43	Y43	Z43	X44	Y44	Z44
																																																																																																																																					
212	2.11	382.48129	1682.47839	1437.6947	420.33463	1692.65002	1544.14783	276.69275	1625.97119	1473.13464	314.24728	1635.38135	1586.51306	266.85437	1438.5249	1503.73816	231.37527	1146.67358	1508.97961	410.21906	1372.34436	1496.36853	452.4357	1215.49976	1486.68115	215.07626	1243.27039	1580.35742	345.70242	1406.77881	1339.03235	307.09854	1222.62598	1256.03882	287.32953	1073.30225	1258.69165	315.9725	964.78729	1229.75488	388.06461	844.09155	1241.01318	331.49301	843.61835	1219.65808	375.62726	771.06738	1206.8645	351.6788	1397.14124	1650.40002	310.79117	1192.28687	1751.67871	326.62485	1067.48438	1754.18726	384.62222	959.62421	1780.4043	494.62378	871.5387	1758.43726	452.26575	857.91589	1796.00098	509.83008	793.01575	1790.59509	394.00281	941.19623	1390.92908	403.60455	934.13837	1607.51294	210.35927	953.20471	1447.56641	217.14693	954.37885	1592.82971	446.00702	628.48401	1316.65747	471.51944	496.27127	1331.57312	406.52127	319.82657	1326.41479	369.87088	103.10954	1376.4939	335.5798	71.38939	1437.62598	505.44141	62.91979	1341.87036	340.85925	600.64441	1650.03601	345.17142	443.20438	1618.25476	286.6701	275.94839	1622.15771	252.02113	75.30585	1564.99243	199.62794	39.30251	1516.15369	392.10114	36.28375	1558.32397	400.18729	1724.48022	1525.42163	1973.09949	1023.58069	-3101.90723	2012.45337	1021.94977	-3140.69385	NaN	NaN	NaN	NaN	NaN	NaN
213	2.12	388.81494	1682.06458	1437.44873	426.7981	1692.22229	1543.74939	282.785	1625.90942	1473.07019	320.60278	1635.31592	1586.34424	272.53558	1438.42078	1503.80872	236.59668	1146.5459	1508.90833	415.88879	1371.98523	1496.2301	457.83517	1215.09827	1486.59546	220.56631	1243.21301	1580.51843	351.099	1406.5802	1338.97351	311.45648	1222.52209	1256.13354	291.0433	1073.40894	1258.74597	318.83337	964.68762	1229.55151	390.59445	843.59283	1240.13794	333.49637	843.45233	1219.31433	377.10858	770.50989	1206.36084	357.55893	1396.88672	1650.25574	317.14838	1192.13684	1751.8457	333.06415	1067.24854	1754.28906	392.0939	959.77283	1780.14941	502.88641	872.81946	1757.73132	460.68408	858.71088	1795.43811	518.98547	794.46576	1789.72522	399.13654	941.00708	1390.86694	408.43658	933.73828	1607.54651	215.47287	953.10645	1447.3175	222.00874	954.29999	1592.58496	450.25244	628.07214	1316.34314	476.63766	495.96814	1331.81714	419.12115	317.53732	1326.38672	390.27054	99.44955	1375.39417	356.87582	65.98	1436.16663	527.61517	64.2402	1341.20227	344.05261	600.27661	1649.74536	347.28943	442.91605	1618.23035	287.80289	275.8934	1622.04883	252.19032	75.39552	1564.99634	199.81575	39.84794	1516.48621	391.99734	36.12748	1558.23718	406.6788	1724.09509	1524.95667	1973.07703	1023.25311	-3102.01416	2012.52917	1022.03198	-3140.69971	NaN	NaN	NaN	NaN	NaN	NaN
214	2.13	394.88229	1681.5907	1436.96118	433.2677	1691.71021	1543.22314	288.58286	1625.97729	1472.89172	326.99115	1635.19897	1586.11633	278.22473	1438.15637	1503.75696	241.90062	1146.36865	1508.79309	421.45566	1371.59094	1495.97559	463.20456	1214.65625	1486.41272	226.10667	1243.09216	1580.59802	356.49524	1406.27063	1338.7876	315.95892	1222.39722	1256.04456	294.69452	1073.43359	1258.75854	321.77682	964.64746	1229.38879	392.38065	842.77332	1239.76819	335.66711	843.24542	1218.9397	378.72287	770.02075	1205.82593	363.39667	1396.578	1650.11243	323.51691	1191.88879	1751.87354	339.5625	1066.99731	1754.3324	399.60486	959.96826	1779.89099	510.99915	874.02185	1756.99329	469.15186	859.54517	1794.776	527.94061	795.78455	1788.85266	404.41049	940.85254	1390.79065	413.25107	933.29242	1607.40869	220.66068	952.98102	1447.08008	226.99611	954.09753	1592.41968	454.3248	627.5105	1316.02429	481.53403	495.5163	1332.09399	430.17978	315.40207	1325.77441	410.72336	96.04692	1374.07227	378.36383	61.5844	1434.89771	549.38477	65.97778	1340.55078	347.42392	599.97888	1649.55212	349.37875	442.40945	1618.03516	289.00186	276.01736	1622.06873	252.3036	75.52554	1564.99438	199.81532	40.04913	1516.42932	392.05374	36.05171	1558.22131	413.20419	1723.67041	1524.48547	1973.19922	1023.48853	-3101.96973	2012.49146	1022.07288	-3140.73438	NaN	NaN	NaN	NaN	NaN	NaN
215	2.14	401.11548	1681.03638	1436.42517	439.75375	1691.16016	1542.61682	294.6123	1625.84973	1472.74231	333.33755	1635.05493	1585.80408	283.87796	1437.84473	1503.62952	247.20024	1146.10022	1508.53271	427.05411	1371.15613	1495.68066	468.56686	1214.16113	1486.13342	231.61086	1242.89954	1580.57263	361.97546	1405.93835	1338.56519	320.54138	1222.21387	1255.77429	298.58569	1073.3866	1258.52917	324.96219	964.48401	1229.06885	394.88461	842.22327	1239.13049	338.02969	843.03479	1218.47241	380.6123	769.47894	1205.16284	369.2077	1396.22083	1649.82458	329.83755	1191.56885	1751.83374	346.15277	1066.73767	1754.2843	407.00168	960.04401	1779.49255	519.09827	875.09088	1756.13464	477.37341	860.03442	1793.92407	536.72467	796.88678	1787.82593	409.78488	940.54797	1390.62378	418.2644	932.90228	1607.41418	226.12158	952.67993	1446.85193	231.98291	953.86823	1592.16785	458.34198	626.76794	1315.76074	486.23941	494.89862	1332.27551	441.505	313.37723	1325.17419	430.68033	93.09294	1372.60767	399.09338	57.04417	1433.05371	570.55621	67.91508	1339.59778	350.87909	599.69769	1649.40771	351.72452	442.0228	1617.91138	290.41895	275.9184	1622.00037	252.63364	75.61594	1565.02612	199.873	40.37633	1516.3783	392.23169	36.0902	1558.32288	419.71652	1723.12781	1523.83716	1973.1825	1023.48798	-3102.00171	2012.56091	1021.96869	-3140.71289	NaN	NaN	NaN	NaN	NaN	NaN
216	2.15	407.32242	1680.47021	1435.86792	446.26529	1690.57202	1541.97974	300.76791	1625.7124	1472.43677	339.71597	1634.89856	1585.42957	289.50888	1437.53967	1503.48657	252.20145	1146.1178	1508.2981	432.69287	1370.72229	1495.35474	474.0051	1213.64172	1485.86243	237.14798	1242.69824	1580.48218	367.44925	1405.5741	1338.26416	325.25729	1222.03625	1255.56323	302.72955	1073.3783	1258.43066	328.26382	964.30042	1228.703	397.552	841.65393	1238.31287	340.5643	842.75592	1217.9928	382.61133	768.93225	1204.5415	374.99423	1395.88281	1649.49927	336.20975	1191.31812	1751.75867	352.76627	1066.39075	1754.12183	414.46298	960.10785	1779.03784	527.15814	876.05402	1755.22827	485.60773	860.63971	1793.14258	545.46985	797.97333	1786.85449	415.22702	940.21649	1390.46362	423.20792	932.4425	1607.29773	231.41055	952.37823	1446.4939	237.04471	953.65576	1591.75	462.25891	625.85394	1315.4751	491.00415	494.30554	1332.27551	452.57101	311.52271	1324.45251	450.39865	90.64846	1371.11072	419.69107	53.38407	1431.31726	591.44702	70.40369	1338.69299	354.30051	599.52136	1649.26001	354.28568	441.73361	1617.85645	291.95712	275.96411	1622.02734	252.81253	75.76942	1565.04285	199.96281	40.72731	1516.39819	392.30249	36.01654	1558.29419	426.3461	1722.60962	1523.21143	1973.15308	1023.36127	-3101.91675	2012.47583	1021.91937	-3140.76001	NaN	NaN	NaN	NaN	NaN	NaN
217	2.16	413.5863	1679.84363	1435.20605	452.78635	1689.90625	1541.2406	306.82672	1625.5343	1472.11169	346.15781	1634.73767	1585.02942	295.16904	1437.18262	1503.19055	257.86783	1145.53357	1507.84912	438.24911	1370.21118	1494.91284	479.45538	1213.09985	1485.50952	242.66068	1242.38977	1580.28394	372.91217	1405.13135	1337.88892	330.1521	1221.74036	1255.22583	306.73749	1073.17871	1258.09009	331.73871	964.04462	1228.23669	400.29715	840.91132	1237.65186	343.30502	842.45795	1217.39099	384.8851	768.37805	1203.75793	380.74976	1395.45923	1649.09668	342.49896	1190.93921	1751.53442	359.39767	1066.01465	1753.8584	421.8222	960.11066	1778.54675	535.05902	876.87408	1754.3042	493.7438	861.21265	1792.41174	554.13232	799	1785.90356	420.77063	939.7605	1390.30212	428.2944	931.96747	1607.23315	236.87625	951.96509	1446.04993	242.14775	953.13141	1591.15466	466.24368	624.80383	1315.2085	495.52322	493.3389	1332.34167	463.33463	309.80423	1323.69324	469.79337	88.69537	1369.69763	440.2291	50.55904	1429.88782	611.56396	73.30089	1337.93188	357.82477	599.27209	1649.05493	356.8186	441.25473	1617.59814	293.67902	275.88629	1621.8811	253.0345	75.93098	1564.97571	200.01613	41.01641	1516.27173	392.42844	36.11762	1558.34412	432.86765	1721.9137	1522.3418	1973.05872	1023.62689	-3101.9375	2012.48755	1021.98663	-3140.81982	NaN	NaN	NaN	NaN	NaN	NaN
218	2.17	419.79584	1679.15735	1434.45508	459.3381	1689.18188	1540.43079	312.91022	1625.34534	1471.68152	352.53979	1634.48804	1584.50195	300.82007	1436.651	1502.71399	263.31363	1145.10535	1507.34619	443.87918	1369.68005	1494.36841	484.96518	1212.54248	1485.07544	248.26035	1242.005	1579.96472	378.41678	1404.66235	1337.42175	334.99191	1221.41663	1254.77319	311.21146	1072.96704	1257.61157	335.36588	963.7049	1227.68005	403.43628	840.23303	1236.58728	346.25531	842.07886	1216.73657	387.26697	767.71906	1203.06812	386.46017	1395.02197	1648.57935	348.76962	1190.53308	1751.21387	366.0238	1065.60925	1753.50952	429.12448	960.02069	1777.9812	542.81689	877.47614	1753.30957	501.66602	861.35944	1791.32227	562.41296	799.66046	1784.71863	426.439	939.20343	1390.04407	433.31949	931.46289	1607.03333	242.41119	951.49847	1445.48743	247.30908	952.98108	1590.70679	470.40247	623.66217	1314.87671	500.16296	492.51163	1332.17029	474.0152	308.27029	1322.85767	488.46237	86.8818	1368.04895	459.52863	47.89768	1427.88257	630.84332	75.93987	1337.10168	361.41629	598.86121	1648.82019	359.39697	440.81796	1617.41003	295.27481	276.03455	1621.89868	253.19855	76.06551	1564.81982	200.17656	41.29863	1516.26355	392.52036	36.03009	1558.3623	439.52243	1721.27539	1521.58081	1972.90381	1023.89075	-3102.08789	2012.52917	1021.95422	-3140.71851	NaN	NaN	NaN	NaN	NaN	NaN
